<?xml version="1.0" standalone="no"?>
<!DOCTYPE svg PUBLIC "-//W3C//DTD SVG 20010904//EN"
 "http://www.w3.org/TR/2001/REC-SVG-20010904/DTD/svg10.dtd">
<svg version="1.0" xmlns="http://www.w3.org/2000/svg"
 width="500.000000pt" height="500.000000pt" viewBox="0 0 500.000000 500.000000"
 preserveAspectRatio="xMidYMid meet">

<g transform="translate(0.000000,500.000000) scale(0.100000,-0.100000)"
fill="#000000" stroke="none">
<path d="M0 2500 l0 -2500 2500 0 2500 0 0 2500 0 2500 -2500 0 -2500 0 0
-2500z m973 867 c43 -22 46 -23 50 -5 7 24 82 26 91 2 3 -9 6 -91 6 -183 0
-179 -3 -191 -49 -191 -50 0 -55 11 -59 122 -4 135 -7 145 -45 168 -39 24 -64
25 -116 4 -84 -33 -104 -156 -43 -267 15 -28 68 -94 119 -149 173 -185 196
-237 197 -438 1 -120 -1 -139 -21 -175 -45 -84 -114 -125 -210 -125 -71 0
-127 25 -170 73 -44 51 -57 98 -58 212 l0 100 48 3 47 3 0 -83 c0 -105 13
-150 51 -182 60 -51 188 -25 206 41 5 15 8 80 8 144 0 111 -1 117 -34 182 -21
42 -68 103 -127 168 -154 166 -189 232 -189 355 1 184 151 295 298 221z m785
8 c32 -10 66 -29 86 -50 55 -55 64 -100 71 -377 6 -202 10 -248 21 -248 15 0
42 25 60 56 11 18 13 18 48 2 40 -20 42 -27 22 -66 -25 -47 -62 -74 -110 -79
l-46 -6 0 -156 c0 -149 -1 -160 -26 -210 -37 -74 -86 -104 -176 -109 -116 -7
-196 40 -229 135 -19 52 -19 906 -1 970 21 72 79 125 157 144 47 11 68 10 123
-6z m2050 0 c66 -20 114 -62 139 -122 19 -45 21 -78 27 -523 6 -469 6 -475 27
-492 12 -10 32 -18 44 -18 27 0 32 -10 27 -56 -4 -31 -7 -34 -38 -34 -58 0
-109 33 -135 87 l-24 48 -3 465 c-2 509 -2 508 -62 543 -15 9 -49 17 -74 17
-39 0 -52 -6 -84 -34 l-37 -34 0 -494 0 -493 45 -11 c44 -10 45 -12 45 -50 0
-37 -2 -39 -34 -42 -19 -2 -54 4 -78 13 -34 13 -47 14 -58 5 -7 -6 -38 -14
-68 -17 -52 -5 -54 -5 -61 22 -11 43 1 65 35 65 16 0 38 9 49 20 21 21 21 29
18 509 -3 464 -4 490 -22 510 -11 12 -29 21 -41 21 -32 0 -48 24 -40 59 4 17
11 33 16 36 15 10 88 -15 116 -40 l28 -23 34 25 c34 26 99 51 137 52 11 1 44
-6 72 -14z m913 -30 c26 -18 53 -50 68 -80 l26 -49 5 -487 c3 -268 8 -491 12
-495 4 -4 25 -10 45 -13 36 -6 38 -8 41 -49 3 -42 3 -42 -31 -42 -18 0 -54 7
-79 16 -42 14 -49 14 -77 0 -45 -24 -100 -21 -110 6 -4 11 -6 32 -3 45 3 18
11 23 34 23 16 0 38 5 49 10 18 10 19 23 19 194 l0 182 -52 17 c-29 10 -86 42
-127 72 -41 30 -78 55 -82 55 -5 0 -9 -107 -9 -237 0 -272 3 -286 63 -291 37
-3 37 -3 37 -49 l0 -46 -47 8 c-46 8 -121 9 -208 3 -39 -3 -40 -2 -40 31 0 35
7 42 60 58 l30 8 2 150 3 150 -50 23 c-60 28 -91 69 -97 127 -10 82 27 142
102 168 l40 14 6 169 c6 183 15 222 67 278 47 49 97 67 184 64 66 -3 82 -7
119 -33z m-2476 11 c42 -13 54 -13 110 2 73 19 95 10 95 -39 0 -31 -23 -49
-65 -49 -18 0 -28 -7 -35 -26 -13 -34 -13 -917 0 -965 13 -48 41 -59 149 -59
98 0 115 -9 109 -57 l-3 -28 -147 0 c-231 0 -223 -21 -214 553 3 224 3 445 -1
492 l-8 85 -35 5 c-20 4 -41 10 -48 14 -13 8 -17 68 -5 79 10 11 46 8 98 -7z
m-2016 -10 c21 -11 30 -11 57 0 19 8 54 14 79 14 l45 0 0 -39 c0 -41 -11 -51
-54 -51 -46 0 -46 4 -46 -525 0 -529 0 -525 46 -525 43 0 54 -10 54 -51 l0
-39 -45 0 c-25 0 -60 6 -79 14 -27 11 -36 11 -57 0 -13 -7 -45 -13 -70 -14
-44 0 -47 2 -51 29 -6 43 8 61 47 61 24 0 38 6 45 19 6 13 10 191 10 510 0
537 2 521 -59 521 -37 0 -48 14 -43 55 4 34 5 35 51 35 25 -1 57 -7 70 -14z
m2714 1 c26 -11 37 -11 62 -1 17 7 51 13 78 14 l47 0 0 -39 c0 -41 -11 -51
-54 -51 -46 0 -46 4 -46 -525 0 -529 0 -525 46 -525 43 0 54 -10 54 -51 l0
-39 -45 0 c-25 0 -60 6 -79 14 -27 11 -36 11 -57 0 -13 -7 -45 -13 -70 -14
-44 0 -47 2 -51 29 -6 43 8 61 47 61 24 0 38 6 45 19 6 13 10 191 10 510 0
537 2 521 -59 521 -37 0 -50 17 -44 58 5 30 8 32 44 32 22 0 54 -6 72 -13z
m-1783 -1602 c0 -8 -7 -15 -15 -15 -11 0 -15 -12 -15 -50 0 -38 -4 -50 -15
-50 -11 0 -15 12 -15 50 0 38 -4 50 -15 50 -8 0 -15 7 -15 15 0 11 12 15 45
15 33 0 45 -4 45 -15z m166 -22 c25 -62 29 -93 10 -93 -9 0 -16 5 -16 10 0 14
-36 13 -60 -2 -31 -20 -34 -2 -10 62 27 73 51 80 76 23z m199 5 c1 -15 4 -30
8 -34 27 -28 -12 -68 -61 -62 -26 3 -27 6 -30 66 l-3 63 43 -3 c39 -3 43 -5
43 -30z m185 17 c0 -8 -9 -15 -20 -15 -11 0 -20 -4 -20 -10 0 -5 9 -10 20 -10
28 0 26 -30 -2 -31 l-23 0 23 -10 c32 -12 23 -33 -16 -37 l-32 -3 0 65 0 66
35 0 c24 0 35 -5 35 -15z m184 -7 c8 -13 7 -23 -2 -39 -11 -18 -11 -24 2 -38
21 -23 20 -31 -3 -31 -10 0 -26 10 -34 23 l-16 22 0 -22 c-1 -14 -7 -23 -16
-23 -12 0 -15 14 -15 66 l0 65 36 -3 c22 -2 42 -10 48 -20z m169 -15 l27 -36
0 36 c0 26 4 37 15 37 12 0 15 -14 15 -65 0 -77 -10 -82 -57 -28 l-32 38 -1
-37 c0 -27 -4 -38 -15 -38 -12 0 -15 14 -15 65 0 55 3 65 18 65 9 -1 29 -17
45 -37z m256 -24 c24 -65 22 -80 -9 -61 -25 15 -53 15 -67 1 -23 -23 -32 1
-16 39 8 20 19 47 24 60 16 43 45 27 68 -39z m325 55 c10 -4 16 -18 16 -36 0
-24 -6 -32 -30 -41 -18 -7 -30 -19 -30 -29 0 -10 -7 -18 -15 -18 -12 0 -15 14
-15 65 l0 65 29 0 c16 0 36 -3 45 -6z m186 -9 c0 -8 -9 -15 -20 -15 -11 0 -20
-4 -20 -10 0 -5 9 -10 20 -10 28 0 26 -30 -2 -31 l-23 0 23 -10 c33 -13 22
-34 -19 -34 l-34 0 -3 63 -3 62 41 0 c29 0 40 -4 40 -15z m184 -7 c8 -13 7
-23 -2 -39 -11 -18 -11 -24 2 -38 21 -23 20 -31 -3 -31 -10 0 -26 10 -34 23
l-16 22 0 -22 c-1 -14 -7 -23 -16 -23 -12 0 -15 14 -15 66 l0 65 36 -3 c22 -2
42 -10 48 -20z m138 -25 c2 -35 7 -48 18 -48 11 0 16 13 18 48 3 39 6 47 23
47 16 0 19 -7 19 -47 0 -70 -38 -101 -91 -73 -15 9 -19 22 -19 65 0 41 4 55
14 55 11 0 16 -14 18 -47z m267 -8 c30 -79 26 -91 -19 -63 -16 10 -24 10 -40
0 -45 -28 -49 -16 -19 63 15 39 26 55 39 55 13 0 24 -16 39 -55z m175 23 l26
-33 0 33 c0 25 4 32 20 32 18 0 20 -7 20 -59 0 -35 -5 -63 -12 -67 -6 -4 -25
8 -44 29 l-33 35 -3 -31 c-2 -20 -8 -32 -18 -32 -11 0 -16 15 -18 63 -3 56 -1
62 17 62 11 0 31 -15 45 -32z m252 -5 c25 -62 29 -93 10 -93 -9 0 -16 5 -16
10 0 14 -36 13 -60 -2 -31 -19 -33 -4 -9 61 26 74 50 81 75 24z m-1300 -528
l26 -35 -26 -35 c-15 -19 -30 -35 -34 -35 -4 0 -18 16 -31 35 l-24 35 24 35
c13 19 27 35 31 35 4 0 19 -16 34 -35z"/>
<path d="M1615 3268 c-47 -37 -55 -72 -55 -248 l0 -160 39 0 c49 0 91 -18 164
-69 l58 -41 -3 227 c-4 248 -8 272 -59 299 -43 22 -111 18 -144 -8z"/>
<path d="M1562 2537 c3 -253 6 -266 64 -303 32 -22 104 -21 137 1 46 30 57 79
56 253 l0 157 -61 45 c-87 64 -118 79 -161 80 l-38 0 3 -233z"/>
<path d="M4516 3270 c-50 -32 -56 -57 -63 -239 l-6 -169 83 -62 c46 -34 101
-70 121 -81 72 -36 69 -46 69 221 0 269 -5 295 -62 330 -42 25 -104 26 -142 0z"/>
<path d="M4307 2769 c-48 -28 -40 -107 14 -135 l29 -15 0 81 c0 83 -5 91 -43
69z"/>
<path d="M1286 1701 c-4 -7 -5 -15 -2 -18 9 -9 19 4 14 18 -4 11 -6 11 -12 0z"/>
<path d="M1480 1719 c0 -5 5 -7 10 -4 6 3 10 8 10 11 0 2 -4 4 -10 4 -5 0 -10
-5 -10 -11z"/>
<path d="M1480 1670 c0 -5 4 -10 9 -10 6 0 13 5 16 10 3 6 -1 10 -9 10 -9 0
-16 -4 -16 -10z"/>
<path d="M1840 1720 c0 -5 5 -10 10 -10 6 0 10 5 10 10 0 6 -4 10 -10 10 -5 0
-10 -4 -10 -10z"/>
<path d="M2270 1695 c0 -8 4 -15 10 -15 5 0 7 7 4 15 -4 8 -8 15 -10 15 -2 0
-4 -7 -4 -15z"/>
<path d="M2600 1714 c0 -9 5 -14 12 -12 18 6 21 28 4 28 -9 0 -16 -7 -16 -16z"/>
<path d="M2960 1720 c0 -5 5 -10 10 -10 6 0 10 5 10 10 0 6 -4 10 -10 10 -5 0
-10 -4 -10 -10z"/>
<path d="M3370 1690 c0 -5 5 -10 10 -10 6 0 10 5 10 10 0 6 -4 10 -10 10 -5 0
-10 -4 -10 -10z"/>
<path d="M3806 1695 c-3 -8 -1 -15 4 -15 6 0 10 7 10 15 0 8 -2 15 -4 15 -2 0
-6 -7 -10 -15z"/>
</g>
</svg>
